<svg width="24" height="20" viewBox="0 0 24 20" fill="none" xmlns="http://www.w3.org/2000/svg">
<path d="M15.5812 16.2922L14.6402 18.6231C14.5664 18.7994 14.4373 18.9435 14.2528 19.0557C14.0683 19.1678 13.8653 19.2239 13.6439 19.2239C13.2749 19.2239 12.9751 19.0917 12.7445 18.8274C12.5138 18.5631 12.4723 18.2707 12.6199 17.9503L16.8266 8.2903C16.9188 8.11408 17.0572 7.9699 17.2417 7.85776C17.4262 7.74562 17.6292 7.68955 17.8506 7.68955H18.6808C18.9022 7.68955 19.1052 7.74562 19.2897 7.85776C19.4742 7.9699 19.6125 8.11408 19.7048 8.2903L23.9114 17.9743C24.059 18.2787 24.0221 18.5631 23.8007 18.8274C23.5793 19.0917 23.2841 19.2239 22.9151 19.2239C22.6753 19.2239 22.4677 19.1678 22.2924 19.0557C22.1172 18.9435 21.9834 18.7913 21.8911 18.5991L20.9502 16.2922H15.5812ZM8.91144 11.5103L4.09594 15.6675C3.89299 15.8437 3.6393 15.9358 3.33487 15.9438C3.03044 15.9518 2.76753 15.8597 2.54613 15.6675C2.34317 15.4912 2.2417 15.267 2.2417 14.9946C2.2417 14.7223 2.34317 14.498 2.54613 14.3218L7.36162 10.1406C6.71587 9.5799 6.13007 8.93911 5.60424 8.21821C5.07841 7.49731 4.5941 6.6803 4.15129 5.76716H6.47601C6.84502 6.39194 7.21402 6.93662 7.58303 7.40119C7.95203 7.86577 8.39483 8.33035 8.91144 8.79493C9.5203 8.26627 10.1522 7.52535 10.8072 6.57216C11.4622 5.61898 11.9557 4.70985 12.2878 3.84478H1.10701C0.793358 3.84478 0.530443 3.75266 0.318266 3.56843C0.106089 3.3842 0 3.15592 0 2.88358C0 2.61124 0.106089 2.38296 0.318266 2.19873C0.530443 2.0145 0.793358 1.92239 1.10701 1.92239H7.74908V0.961194C7.74908 0.688856 7.85517 0.460572 8.06734 0.276343C8.27952 0.0921144 8.54244 0 8.85609 0C9.16974 0 9.43266 0.0921144 9.64483 0.276343C9.85701 0.460572 9.9631 0.688856 9.9631 0.961194V1.92239H16.6052C16.9188 1.92239 17.1817 2.0145 17.3939 2.19873C17.6061 2.38296 17.7122 2.61124 17.7122 2.88358C17.7122 3.15592 17.6061 3.3842 17.3939 3.56843C17.1817 3.75266 16.9188 3.84478 16.6052 3.84478H14.5018C14.1144 4.99821 13.5332 6.18368 12.7583 7.40119C11.9834 8.61871 11.2177 9.54786 10.4613 10.1887L13.1181 12.5436L12.2878 14.514L8.91144 11.5103ZM16.2731 14.6102H20.2583L18.2657 9.70806L16.2731 14.6102Z" fill="url(#paint0_linear_43_129)"/>
<defs>
<linearGradient id="paint0_linear_43_129" x1="12" y1="0" x2="12" y2="19.2239" gradientUnits="userSpaceOnUse">
<stop stop-color="#4381FC"/>
<stop offset="1" stop-color="#0344C8"/>
</linearGradient>
</defs>
</svg>
