<svg width="309" height="50" viewBox="0 0 309 50" fill="none" xmlns="http://www.w3.org/2000/svg">
<path d="M0.119995 39V5.73599H19.944L19.128 11.352H7.992V20.184H17.688V25.8H7.992V39H0.119995Z" fill="#141414"/>
<path d="M43.9031 25.752C43.9031 26.808 43.8551 27.72 43.7591 28.488H27.9671C28.2231 30.632 28.8311 32.136 29.7911 33C30.7511 33.864 32.0791 34.296 33.7751 34.296C34.7991 34.296 35.7911 34.12 36.7511 33.768C37.7111 33.384 38.7511 32.808 39.8711 32.04L42.9911 36.264C40.0151 38.632 36.7031 39.816 33.0551 39.816C28.9271 39.816 25.7591 38.6 23.5511 36.168C21.3431 33.736 20.2391 30.472 20.2391 26.376C20.2391 23.784 20.7031 21.464 21.6311 19.416C22.5591 17.336 23.9191 15.704 25.7111 14.52C27.5031 13.304 29.6471 12.696 32.1431 12.696C35.8231 12.696 38.7031 13.848 40.7831 16.152C42.8631 18.456 43.9031 21.656 43.9031 25.752ZM36.4631 23.592C36.3991 19.688 35.0231 17.736 32.3351 17.736C31.0231 17.736 29.9991 18.216 29.2631 19.176C28.5591 20.136 28.1271 21.72 27.9671 23.928H36.4631V23.592Z" fill="#141414"/>
<path d="M54.9315 39.816C52.7235 39.816 50.9955 39.192 49.7475 37.944C48.5315 36.664 47.9235 34.856 47.9235 32.52V3.38399L55.5075 2.56799V32.232C55.5075 33.288 55.9395 33.816 56.8035 33.816C57.2515 33.816 57.6675 33.736 58.0515 33.576L59.5395 38.952C58.1635 39.528 56.6275 39.816 54.9315 39.816Z" fill="#141414"/>
<path d="M69.9975 13.512V39H62.4135V13.512H69.9975ZM66.1575 0.071991C67.4695 0.071991 68.5415 0.487991 69.3735 1.31999C70.2375 2.11999 70.6695 3.14399 70.6695 4.39199C70.6695 5.63999 70.2375 6.67999 69.3735 7.51199C68.5415 8.31199 67.4695 8.71199 66.1575 8.71199C64.8455 8.71199 63.7735 8.31199 62.9415 7.51199C62.1095 6.67999 61.6935 5.63999 61.6935 4.39199C61.6935 3.14399 62.1095 2.11999 62.9415 1.31999C63.7735 0.487991 64.8455 0.071991 66.1575 0.071991Z" fill="#141414"/>
<path d="M90.3604 12.696C93.5604 12.696 95.9444 13.88 97.5124 16.248C99.0804 18.616 99.8644 21.928 99.8644 26.184C99.8644 28.808 99.4484 31.16 98.6164 33.24C97.8164 35.288 96.6484 36.904 95.1124 38.088C93.5764 39.24 91.7844 39.816 89.7364 39.816C87.1764 39.816 85.1124 38.936 83.5444 37.176V48.84L75.9604 49.656V13.512H82.6324L83.0164 16.344C84.0084 15.096 85.1444 14.184 86.4244 13.608C87.7044 13 89.0164 12.696 90.3604 12.696ZM87.4324 34.248C90.4724 34.248 91.9924 31.592 91.9924 26.28C91.9924 23.272 91.6564 21.192 90.9844 20.04C90.3124 18.856 89.3044 18.264 87.9604 18.264C87.0964 18.264 86.2804 18.52 85.5124 19.032C84.7764 19.544 84.1204 20.28 83.5444 21.24V31.992C84.5684 33.496 85.8644 34.248 87.4324 34.248Z" fill="#141414"/>
<path d="M126.825 25.752C126.825 26.808 126.777 27.72 126.681 28.488H110.889C111.145 30.632 111.753 32.136 112.713 33C113.673 33.864 115.001 34.296 116.697 34.296C117.721 34.296 118.713 34.12 119.673 33.768C120.633 33.384 121.673 32.808 122.793 32.04L125.913 36.264C122.937 38.632 119.625 39.816 115.977 39.816C111.849 39.816 108.681 38.6 106.473 36.168C104.265 33.736 103.161 30.472 103.161 26.376C103.161 23.784 103.625 21.464 104.553 19.416C105.481 17.336 106.841 15.704 108.633 14.52C110.425 13.304 112.569 12.696 115.065 12.696C118.745 12.696 121.625 13.848 123.705 16.152C125.785 18.456 126.825 21.656 126.825 25.752ZM119.385 23.592C119.321 19.688 117.945 17.736 115.257 17.736C113.945 17.736 112.921 18.216 112.185 19.176C111.481 20.136 111.049 21.72 110.889 23.928H119.385V23.592Z" fill="#141414"/>
<path d="M175.644 39H167.916L167.34 25.992C167.18 22.888 167.1 20.12 167.1 17.688C167.1 15.832 167.148 14.072 167.244 12.408L162.108 35.496H154.668L149.196 12.408C149.388 15.192 149.484 17.816 149.484 20.28C149.484 22.136 149.436 24.072 149.34 26.088L148.764 39H141.084L143.58 5.73599H153.516L158.508 28.296L163.164 5.73599H173.148L175.644 39Z" fill="#141414"/>
<path d="M202.434 25.752C202.434 26.808 202.386 27.72 202.29 28.488H186.498C186.754 30.632 187.362 32.136 188.322 33C189.282 33.864 190.61 34.296 192.306 34.296C193.33 34.296 194.322 34.12 195.282 33.768C196.242 33.384 197.282 32.808 198.402 32.04L201.522 36.264C198.546 38.632 195.234 39.816 191.586 39.816C187.458 39.816 184.29 38.6 182.082 36.168C179.874 33.736 178.77 30.472 178.77 26.376C178.77 23.784 179.234 21.464 180.162 19.416C181.09 17.336 182.45 15.704 184.242 14.52C186.034 13.304 188.178 12.696 190.674 12.696C194.354 12.696 197.234 13.848 199.314 16.152C201.394 18.456 202.434 21.656 202.434 25.752ZM194.994 23.592C194.93 19.688 193.554 17.736 190.866 17.736C189.554 17.736 188.53 18.216 187.794 19.176C187.09 20.136 186.658 21.72 186.498 23.928H194.994V23.592Z" fill="#141414"/>
<path d="M221.623 12.696C223.831 12.696 225.559 13.368 226.807 14.712C228.055 16.056 228.679 17.944 228.679 20.376V39H221.095V21.672C221.095 20.392 220.887 19.512 220.471 19.032C220.087 18.52 219.495 18.264 218.695 18.264C217.159 18.264 215.687 19.368 214.279 21.576V39H206.695V13.512H213.319L213.847 16.536C214.935 15.256 216.103 14.296 217.351 13.656C218.631 13.016 220.055 12.696 221.623 12.696Z" fill="#141414"/>
<path d="M257.246 3.38399V39H250.526L250.142 36.024C248.35 38.552 245.934 39.816 242.894 39.816C239.726 39.816 237.31 38.6 235.646 36.168C234.014 33.736 233.198 30.408 233.198 26.184C233.198 23.592 233.63 21.272 234.494 19.224C235.358 17.176 236.574 15.576 238.142 14.424C239.742 13.272 241.566 12.696 243.614 12.696C246.046 12.696 248.062 13.496 249.662 15.096V2.56799L257.246 3.38399ZM245.246 34.248C247.006 34.248 248.478 33.288 249.662 31.368V20.376C249.054 19.64 248.43 19.096 247.79 18.744C247.182 18.392 246.478 18.216 245.678 18.216C244.27 18.216 243.15 18.872 242.318 20.184C241.486 21.496 241.07 23.512 241.07 26.232C241.07 29.208 241.422 31.288 242.126 32.472C242.862 33.656 243.902 34.248 245.246 34.248Z" fill="#141414"/>
<path d="M285.403 25.752C285.403 26.808 285.355 27.72 285.259 28.488H269.467C269.723 30.632 270.331 32.136 271.291 33C272.251 33.864 273.579 34.296 275.275 34.296C276.299 34.296 277.291 34.12 278.251 33.768C279.211 33.384 280.251 32.808 281.371 32.04L284.491 36.264C281.515 38.632 278.203 39.816 274.555 39.816C270.427 39.816 267.259 38.6 265.051 36.168C262.843 33.736 261.739 30.472 261.739 26.376C261.739 23.784 262.203 21.464 263.131 19.416C264.059 17.336 265.419 15.704 267.211 14.52C269.003 13.304 271.147 12.696 273.643 12.696C277.323 12.696 280.203 13.848 282.283 16.152C284.363 18.456 285.403 21.656 285.403 25.752ZM277.963 23.592C277.899 19.688 276.523 17.736 273.835 17.736C272.523 17.736 271.499 18.216 270.763 19.176C270.059 20.136 269.627 21.72 269.467 23.928H277.963V23.592Z" fill="#141414"/>
<path d="M298.639 12.696C300.463 12.696 302.175 12.968 303.775 13.512C305.375 14.056 306.784 14.824 308 15.816L305.215 20.088C303.135 18.776 301.039 18.12 298.927 18.12C297.935 18.12 297.168 18.296 296.624 18.648C296.112 18.968 295.855 19.432 295.855 20.04C295.855 20.52 295.967 20.92 296.191 21.24C296.447 21.528 296.944 21.832 297.68 22.152C298.416 22.472 299.551 22.856 301.087 23.304C303.743 24.072 305.711 25.08 306.991 26.328C308.303 27.544 308.96 29.24 308.96 31.416C308.96 33.144 308.463 34.648 307.471 35.928C306.479 37.176 305.12 38.136 303.392 38.808C301.664 39.48 299.743 39.816 297.632 39.816C295.488 39.816 293.488 39.48 291.632 38.808C289.808 38.136 288.255 37.208 286.975 36.024L290.672 31.896C292.816 33.56 295.071 34.392 297.439 34.392C298.591 34.392 299.488 34.184 300.128 33.768C300.8 33.352 301.135 32.76 301.135 31.992C301.135 31.384 301.007 30.904 300.751 30.552C300.495 30.2 299.999 29.88 299.263 29.592C298.527 29.272 297.359 28.888 295.759 28.44C293.231 27.704 291.343 26.68 290.095 25.368C288.847 24.056 288.223 22.424 288.223 20.472C288.223 19 288.639 17.688 289.471 16.536C290.335 15.352 291.552 14.424 293.12 13.752C294.72 13.048 296.559 12.696 298.639 12.696Z" fill="#141414"/>
</svg>
